<svg width="70" height="40" viewBox="0 0 70 40" fill="none" xmlns="http://www.w3.org/2000/svg">
<path d="M24.6863 0C20.6248 0 16.7297 1.6134 13.8579 4.48528L4.48528 13.8579C1.6134 16.7297 0 20.6248 0 24.6863C0 33.1439 6.85619 40 15.3137 40C19.3752 40 23.2703 38.3865 26.1421 35.5147L32.6252 29.0316C32.6252 29.0315 32.6253 29.0317 32.6252 29.0316L51.5147 10.1421C52.8863 8.77055 54.7465 8 56.6863 8C59.9337 8 62.6869 10.1165 63.6415 13.0454L69.6029 7.08395C66.8833 2.82445 62.1147 0 56.6863 0C52.6248 0 48.7297 1.6134 45.8579 4.48528L20.4853 29.8579C19.1137 31.2295 17.2535 32 15.3137 32C11.2745 32 8 28.7256 8 24.6863C8 22.7465 8.77055 20.8863 10.1421 19.5147L19.5147 10.1421C20.8863 8.77055 22.7465 8 24.6863 8C27.9339 8 30.6869 10.1166 31.6415 13.0456L37.6031 7.08409C34.8835 2.82453 30.1148 0 24.6863 0Z" fill="white"/>
</svg>
